<?xml version="1.0" encoding="UTF-8"?>
<svg id="guitar" xmlns="http://www.w3.org/2000/svg" viewBox="0 0 787 780.5">
  <defs>
    <style>
      .cls-1 {
        fill: #85d1cf;
      }

      .cls-2 {
        fill: #4ca09d;
      }
    </style>
  </defs>
  <path class="cls-1" d="m447.5,261c-1.1-12.69-89-68-160-4-42.55,38.35-21,48-49,86-17.64,23.94-40,21-89,32S30,409.5,11,485.5c-17.46,69.86-1.5,101.5,29.5,148.5s79.5,107.5,149.5,128.5c37.2,11.16,87.23,26.03,148.5-25.5,107-90,47-141,98-187s98.96-30.4,117-117c11.36-54.52-42.24-96.2-30-107,17-15,126-124,126-124l42-22,75.95-87.56c6.6-7.61,9.26-17.89,7.11-27.74-2.08-9.49-6.34-21.56-15.05-32.7-18.49-23.63-51.5-30.26-67-26s-92,91-92,91l-16,36-137,128Z"/>
  <circle class="cls-2" cx="348.5" cy="433" r="78"/>
  <rect class="cls-2" x="187.02" y="487.85" width="25.46" height="188.8" rx="12.73" ry="12.73" transform="translate(-353.21 311.78) rotate(-45)"/>
</svg>