<?xml version="1.0" encoding="UTF-8"?>
<svg id="eletric-guitar" xmlns="http://www.w3.org/2000/svg" viewBox="0 0 790 780">
  <defs>
    <style>
      .cls-1 {
        fill: #85d1cf;
      }

      .cls-2 {
        fill: #4ca09d;
      }
    </style>
  </defs>
  <path class="cls-1" d="m574,128l-218.86,211.96c-1.67,1.61-4.39,1.32-5.66-.63-6.56-10.05-22.65-38.21-7.48-52.33,44.89-41.8,33.04-74.67-14-67-38.39,6.26-77.67,58-95,110-20,60-51.85,52.94-82,63-55.65,18.56-99.09,39.57-128,92-43,78,26,190,78,226,53.62,37.12,114.22,52.64,166,25,51.24-27.36,70.81-64.52,78-113,6.91-46.6,15.35-47.98,60-66,57-23,58.06-64.71,22-71-20.69-3.61-33,20-56,0s-11-26-11-26l271-282s26.49-15.65,47-6c17,8,42.07-58.71,89-76,38-14-27.75-71.83-38-62l-110.68,29.84c-13.56,3.92-24.78,13.47-30.81,26.23l-13.51,37.93Z"/>
  <circle class="cls-2" cx="272.5" cy="620.5" r="12.5"/>
  <circle class="cls-2" cx="258" cy="656" r="10"/>
  <circle class="cls-2" cx="221.5" cy="670.5" r="10.5"/>
  <rect class="cls-2" x="113.8" y="544.97" width="68" height="124.45" rx="26.97" ry="26.97" transform="translate(-386.06 282.36) rotate(-45)"/>
</svg>