<?xml version="1.0" encoding="UTF-8"?>
<svg id="drums" xmlns="http://www.w3.org/2000/svg" viewBox="0 0 790 780">
  <defs>
    <style>
      .cls-1 {
        fill: #85d1cf;
      }

      .cls-2 {
        fill: #4ca09d;
      }
    </style>
  </defs>
  <rect class="cls-1" x="383" y="255" width="19" height="29"/>
  <rect class="cls-2" x="456.76" y="637.39" width="67.55" height="19.7" rx="9.85" ry="9.85" transform="translate(294.68 1435.38) rotate(-128.89)"/>
  <rect class="cls-2" x="261.17" y="635.6" width="67.55" height="19.7" rx="9.85" ry="9.85" transform="translate(-392.63 469.83) rotate(-51.11)"/>
  <rect class="cls-2" x="317" y="207" width="151" height="48" rx="15.09" ry="15.09"/>
  <circle class="cls-1" cx="394" cy="470" r="192"/>
  <rect class="cls-1" x="88.45" y="240.46" width="214.11" height="110.53" rx="22.33" ry="22.33" transform="translate(57.38 -30.77) rotate(10.54)"/>
  <rect class="cls-1" x="479.06" y="247.79" width="214.11" height="110.53" rx="22.33" ry="22.33" transform="translate(-40.5 96.35) rotate(-9.08)"/>
  <rect class="cls-1" x="25.94" y="605.6" width="139.69" height="19.7" rx="9.85" ry="9.85" transform="translate(-369.81 201.72) rotate(-39.53)"/>
  <rect class="cls-1" x="128.87" y="604.25" width="143.86" height="19.7" rx="9.85" ry="9.85" transform="translate(-28.42 1218.17) rotate(-141.11)"/>
  <rect class="cls-1" x="140" y="163" width="18" height="538" rx="9" ry="9"/>
  <ellipse class="cls-2" cx="149.57" cy="135.29" rx="39.74" ry="141.71" transform="translate(-22.61 240.31) rotate(-73.51)"/>
  <rect class="cls-1" x="622.7" y="603.97" width="139.69" height="19.7" rx="9.85" ry="9.85" transform="translate(836.02 1528.04) rotate(-140.47)"/>
  <rect class="cls-1" x="515.6" y="602.63" width="143.86" height="19.7" rx="9.85" ry="9.85" transform="translate(-254.3 504.57) rotate(-38.89)"/>
  <rect class="cls-1" x="630.33" y="161.37" width="18" height="538" rx="9" ry="9" transform="translate(1278.66 860.74) rotate(-180)"/>
  <ellipse class="cls-2" cx="638.76" cy="133.66" rx="141.71" ry="39.74" transform="translate(-11.67 186.79) rotate(-16.49)"/>
</svg>