<?xml version="1.0" encoding="UTF-8"?>
<svg id="microphone" xmlns="http://www.w3.org/2000/svg" viewBox="0 0 790 780">
  <defs>
    <style>
      .cls-1 {
        fill: #85d1cf;
      }

      .cls-2 {
        fill: #4ca09d;
      }
    </style>
  </defs>
  <g id="Layer_10" data-name="Layer 10">
    <path class="cls-1" d="m653,466c-23-22-52.5-37.06-85-39-32.35-1.93-54.26,7.63-134,88-79.21,79.83-185.74,189.06-205,201-20.91,12.96-49.13,15.18-81-9-29-22-35-68-22-87,11.63-16.99,33-36,33-36l36,34,62-59,13,13,259.79-237.84c5.49.55,11.07.84,16.71.84,90.85,0,164.5-73.65,164.5-164.5S637.35,6,546.5,6s-164.5,73.65-164.5,164.5c0,6.9.43,13.69,1.25,20.36l-235.25,257.14,11,12-59,65,27,27s-61,53-52,105,46.44,105.98,97,112c84,10,94-23,151-79s189-192,205-205c22.72-18.46,62.89-15.88,88,8,21.7,20.64,30.98,50.61,15,81-12.87,24.48-69.83,70.97-67,72l31,31c-.8-1.21,82.63-67.06,86-114,3.51-48.92-5-75-28-97Z"/>
    <rect class="cls-2" x="367.33" y="302.86" width="47.33" height="47.33" transform="translate(345.41 -180.84) rotate(45)"/>
  </g>
</svg>