<?xml version="1.0" encoding="UTF-8"?>
<svg id="xylophone" xmlns="http://www.w3.org/2000/svg" viewBox="0 0 790 780">
  <defs>
    <style>
      .cls-1 {
        fill: #85d1cf;
      }

      .cls-2 {
        fill: #4ca09d;
      }
    </style>
  </defs>
  <path class="cls-1" d="m250,25h-67.06s-21.94,5-24.94,34c-2.78,26.91-81.84,583.21-93,663-1,7.17.7,15.56,4,22,4.1,8,11.51,16.87,20,18,15,2,74,0,74,0,0,0,20-3,25-36S270.78,128.14,279,67c.55-4.06.22-10.8-.81-14.77-3.19-12.23-11.16-26.52-28.19-27.23Z"/>
  <path class="cls-1" d="m364.32,25h67.06s21.94,5,24.94,34c2.78,26.91,81.84,583.21,93,663,1,7.17-.7,15.56-4,22-4.1,8-11.51,16.87-20,18-15,2-74,0-74,0,0,0-20-3-25-36-4.92-32.47-82.78-597.86-91-659-.55-4.06-.22-10.8.81-14.77,3.19-12.23,11.16-26.52,28.19-27.23Z"/>
  <rect class="cls-2" x="98" y="62" width="418" height="147" rx="47.56" ry="47.56"/>
  <rect class="cls-2" x="74" y="234" width="467" height="147" rx="47.56" ry="47.56"/>
  <rect class="cls-2" x="49" y="406" width="516" height="147" rx="47.56" ry="47.56"/>
  <rect class="cls-2" x="25" y="578" width="565" height="147" rx="47.56" ry="47.56"/>
  <rect class="cls-1" x="326.79" y="405.18" width="647.52" height="74.5" rx="37.25" ry="37.25" transform="translate(972.88 -275.25) rotate(79.97)"/>
  <rect class="cls-1" x="377.36" y="402.63" width="647.52" height="74.5" rx="37.25" ry="37.25" transform="translate(1141 -261.24) rotate(90)"/>
  <path class="cls-2" d="m685.85,25h33.29c24.2,0,43.85,19.65,43.85,43.85v65.59c0,8.04-6.52,14.56-14.56,14.56h-91.88c-8.04,0-14.56-6.52-14.56-14.56v-65.59c0-24.2,19.65-43.85,43.85-43.85Z"/>
  <path class="cls-2" d="m572.18,34.35h33.29c24.2,0,43.85,19.65,43.85,43.85v65.59c0,8.04-6.52,14.56-14.56,14.56h-91.88c-8.04,0-14.56-6.52-14.56-14.56v-65.59c0-24.2,19.65-43.85,43.85-43.85Z" transform="translate(-7.78 104.05) rotate(-10.03)"/>
  <g>
    <circle class="cls-1" cx="209.5" cy="135.5" r="37.5"/>
    <circle class="cls-1" cx="404.5" cy="135.5" r="37.5"/>
    <circle class="cls-1" cx="183.5" cy="307.5" r="37.5"/>
    <circle class="cls-1" cx="429.5" cy="307.5" r="37.5"/>
    <circle class="cls-1" cx="159.5" cy="479.5" r="37.5"/>
    <circle class="cls-1" cx="453.5" cy="479.5" r="37.5"/>
    <circle class="cls-1" cx="134.5" cy="651.5" r="37.5"/>
    <circle class="cls-1" cx="477.5" cy="651.5" r="37.5"/>
  </g>
</svg>